<svg width="48" height="48" viewBox="0 0 24 24" fill="none" xmlns="http://www.w3.org/2000/svg" stroke="#241B14" stroke-width="2" stroke-linecap="round" stroke-linejoin="round">
  <circle cx="12" cy="12" r="3"/>
  <path d="M19.4 15a1.7 1.7 0 0 0 .34 1.88l.06.06-2.18 2.18-.06-.06a1.7 1.7 0 0 0-1.88-.34 1.7 1.7 0 0 0-1.03 1.56v.09h-3.08v-.09a1.7 1.7 0 0 0-1.03-1.56 1.7 1.7 0 0 0-1.88.34l-.06.06-2.18-2.18.06-.06A1.7 1.7 0 0 0 6.82 15 1.7 1.7 0 0 0 5.26 14H5.17v-3.08h.09A1.7 1.7 0 0 0 6.82 9.9 1.7 1.7 0 0 0 6.48 8l-.06-.06 2.18-2.18.06.06a1.7 1.7 0 0 0 1.88.34 1.7 1.7 0 0 0 1.03-1.56v-.09h3.08v.09a1.7 1.7 0 0 0 1.03 1.56 1.7 1.7 0 0 0 1.88-.34l.06-.06 2.18 2.18-.06.06a1.7 1.7 0 0 0-.34 1.88 1.7 1.7 0 0 0 1.56 1.03h.09V14h-.09A1.7 1.7 0 0 0 19.4 15Z"/>
</svg>
